<?xml version="1.0" standalone="no"?>
<!DOCTYPE svg PUBLIC "-//W3C//DTD SVG 20010904//EN"
 "http://www.w3.org/TR/2001/REC-SVG-20010904/DTD/svg10.dtd">
<svg version="1.0" xmlns="http://www.w3.org/2000/svg"
 width="700.000000pt" height="700.000000pt" viewBox="0 0 700.000000 700.000000"
 preserveAspectRatio="xMidYMid meet">
<metadata>
Created by potrace 1.14, written by Peter Selinger 2001-2017
</metadata>
<g transform="translate(0.000000,700.000000) scale(0.100000,-0.100000)"
fill="#000000" stroke="none">
<path d="M4928 6995 c-2 -1 -30 -6 -63 -9 -238 -26 -552 -132 -740 -250 -163
-102 -247 -169 -364 -285 -127 -126 -153 -156 -236 -275 -182 -263 -291 -560
-330 -906 -6 -56 -6 -277 0 -340 14 -145 40 -275 80 -405 l24 -80 -1649 -1649
-1650 -1650 573 -573 573 -573 1650 1650 1649 1649 80 -24 c71 -22 200 -52
305 -71 61 -10 412 -13 485 -3 128 17 148 20 262 50 203 53 414 147 583 262
141 95 325 267 433 404 195 247 337 573 383 880 3 21 8 49 11 63 9 41 11 398
2 443 -4 23 -10 62 -13 87 -3 25 -8 54 -10 65 -20 91 -30 131 -52 204 l-25 83
-580 -578 c-319 -319 -581 -580 -583 -581 -1 -2 -38 11 -82 28 -66 26 -201 79
-279 109 -157 61 -288 112 -320 125 -16 7 -54 21 -83 31 -36 13 -58 27 -67 44
-7 14 -47 115 -90 225 -62 163 -137 356 -184 480 -5 11 -16 37 -25 59 -9 21
-14 41 -11 45 3 3 264 265 581 582 l576 577 -66 21 c-60 19 -168 47 -221 57
-123 22 -186 27 -342 30 -100 1 -183 1 -185 -1z m-3702 -5529 c77 -14 168 -91
214 -180 29 -57 33 -75 33 -145 1 -69 -3 -87 -31 -144 -60 -121 -168 -190
-301 -191 -355 -3 -466 473 -149 635 65 33 141 41 234 25z"/>
</g>
</svg>
